<svg width="160" height="164" viewBox="0 0 160 164" fill="none" xmlns="http://www.w3.org/2000/svg">
<ellipse cx="80.9097" cy="84.2321" rx="78.5118" ry="79.768" fill="#222528"/>
<path d="M19.8107 150.869C20.2426 151.298 20.8479 151.514 21.4936 151.471C22.1393 151.427 22.7724 151.127 23.2538 150.636C27.9485 145.887 32.864 141.367 37.9792 137.095C38.791 140.319 41.8723 148.795 51.7889 148.837C59.0265 148.859 69.0109 144.581 69.0109 144.581C69.0109 144.581 63.4202 136.332 58.4024 133.399C52.846 130.147 47.067 131.284 43.0274 132.931C49.1779 128.002 55.2045 123.523 60.5362 119.662C61.2644 122.706 64.2541 131.567 74.3956 131.61C81.6332 131.632 91.6202 127.353 91.6202 127.353C91.6202 127.353 86.0148 119.114 81.01 116.177C75.8172 113.138 70.455 113.932 66.4828 115.385L66.602 115.298C70.4469 112.557 73.7644 110.169 76.0554 108.367C78.3464 106.566 80.4967 104.728 82.5597 102.846C84.2953 105.381 90.1277 112.351 100.092 109.035C107.234 106.667 115.67 99.4686 115.67 99.4686C115.67 99.4686 107.466 93.8572 101.567 92.8704C97.9962 92.2424 94.1734 92.8651 90.7015 94.6405C94.4185 90.4847 97.8276 86.0693 100.895 81.438C103.332 83.9446 109.783 89.0318 118.954 84.8806C125.944 81.7061 133.714 73.6959 133.714 73.6959C133.714 73.6959 124.772 69.2387 118.675 68.9842C113.193 68.7638 108.813 71.0368 105.657 73.5948C108.404 68.6418 110.802 63.5323 112.832 58.309C116.219 59.8702 123.829 62.1243 131.67 55.8768C137.926 50.9064 143.647 41.3229 143.647 41.3229C143.647 41.3229 133.385 39.9395 127.137 41.5289C123.033 42.5518 119.223 44.9062 116.322 48.2129C117.392 44.6325 118.314 41.026 119.087 37.4033C122.524 33.9488 127.218 27.6835 126.376 19.7686C125.6 12.5138 120.443 4.6907 120.443 4.6907C120.443 4.6907 113.27 14.4325 111.054 20.9123C107.936 30.0529 111.556 35.9909 113.933 38.6793C113.38 41.1247 112.725 43.6728 111.962 46.2955C111.037 43.1321 109.109 40.4636 106.45 38.6656C101.705 35.3865 91.5563 33.6425 91.5563 33.6425C91.5563 33.6425 91.1241 44.0457 93.8724 50.3878C96.8888 57.352 103.544 58.3826 107.844 58.2522C105.937 62.9982 103.709 67.6403 101.176 72.1428C101.211 67.9168 99.6715 64.0214 96.8592 61.2176C92.7901 57.0983 83.3118 53.661 83.3118 53.661C83.3118 53.661 81.366 64.1707 83.0754 71.076C84.9572 78.6826 91.231 80.8056 95.3742 81.3605C91.7895 86.4899 87.7554 91.3126 83.3295 95.7598C84.713 91.5338 85.6262 85.1255 81.5382 79.4753C78.1096 74.7407 69.3689 69.9451 69.3689 69.9451C69.3689 69.9451 66.1844 80.3623 66.9831 87.6077C67.9503 96.4554 74.9761 99.2089 78.8057 100.055C77.0681 101.609 75.2567 103.134 73.3714 104.628C71.34 106.221 68.378 108.354 64.9416 110.815C67.0561 107.131 68.7687 102.046 67.2466 96.3346C65.6819 90.5364 59.3424 82.9105 59.3424 82.9105C59.3424 82.9105 53.0583 92.1116 51.409 99.5125C49.3844 108.603 54.9148 113.647 58.0901 115.732C53.3935 119.135 48.1519 123.01 42.7461 127.277C44.6622 123.665 46.0582 118.885 44.6316 113.561C43.0669 107.763 36.73 100.137 36.73 100.137C36.73 100.137 30.4506 109.334 28.8027 116.742C26.7453 125.974 32.4859 131.028 35.64 133.056C30.2011 137.573 24.9779 142.361 19.9941 147.396C19.7553 147.64 19.5612 147.923 19.4227 148.229C19.2842 148.535 19.2042 148.859 19.1872 149.182C19.1701 149.504 19.2164 149.82 19.3234 150.109C19.4304 150.399 19.596 150.657 19.8107 150.869V150.869Z" fill="#F6BB63"/>
</svg>
